<?xml version="1.0" standalone="yes"?>

<svg version="1.1" viewBox="0.0 0.0 237.26771653543307 242.49606299212599" fill="none" stroke="none" stroke-linecap="square" stroke-miterlimit="10" xmlns="http://www.w3.org/2000/svg" xmlns:xlink="http://www.w3.org/1999/xlink"><clipPath id="p.0"><path d="m0 0l237.26772 0l0 242.49606l-237.26772 0l0 -242.49606z" clip-rule="nonzero"></path></clipPath><g clip-path="url(#p.0)"><path fill="#000000" fill-opacity="0.0" d="m0 0l237.26772 0l0 242.49606l-237.26772 0z" fill-rule="evenodd"></path><path fill="#000000" fill-opacity="0.0" d="m36.889763 26.356955l209.48032 0l0 156.7559l-209.48032 0z" fill-rule="evenodd"></path><path fill="#ffffff" d="m99.76476 136.86195l11.625 1.4375q-2.75 10.1875 -10.1875 15.8125q-7.4375 5.625 -19.0 5.625q-14.5625 0 -23.09375 -8.96875q-8.53125 -8.96875 -8.53125 -25.156242q0 -16.75 8.625 -26.0q8.625 -9.25 22.375 -9.25q13.3125 0 21.75 9.0625q8.4375 9.0625 8.4375 25.5q0 1.0 -0.0625 3.0l-49.5 0q0.625 10.937492 6.1875 16.749992q5.5625 5.8125 13.875 5.8125q6.1875 0 10.5625 -3.25q4.375 -3.25 6.9375 -10.375zm-36.9375 -18.187492l37.0625 0q-0.75 -8.375 -4.25 -12.5625q-5.375 -6.5 -13.9375 -6.5q-7.75 0 -13.03125 5.1875q-5.28125 5.1875 -5.84375 13.875zm65.37501 39.562492l0 -57.624992l-9.937508 0l0 -8.75l9.937508 0l0 -7.0625q0 -6.6875 1.1875 -9.9375q1.625 -4.375 5.71875 -7.09375q4.09375 -2.71875 11.46875 -2.71875q4.75 0 10.5 1.125l-1.6875 9.8125q-3.5 -0.625 -6.625 -0.625q-5.125 0 -7.25 2.1875q-2.125 2.1875 -2.125 8.1875l0 6.125l12.9375 0l0 8.75l-12.9375 0l0 57.624992l-11.1875 0zm32.9375 -78.68749l0 -12.9375l11.25 0l0 12.9375l-11.25 0zm0 78.68749l0 -66.37499l11.25 0l0 66.37499l-11.25 0z" fill-rule="nonzero"></path><path fill="#000000" fill-opacity="0.0" d="m147.59317 8.545932l61.16536 0l0 79.244095l-61.16536 0z" fill-rule="evenodd"></path><path fill="#ffffff" d="m159.40567 68.88968l5.890625 -0.796875q1.015625 5.015625 3.453125 7.21875q2.4375 2.203125 5.9375 2.203125q4.15625 0 7.015625 -2.875q2.859375 -2.875 2.859375 -7.125q0 -4.062496 -2.65625 -6.687496q-2.640625 -2.640625 -6.734375 -2.640625q-1.671875 0 -4.15625 0.65625l0.65625 -5.171875q0.59375 0.0625 0.953125 0.0625q3.765625 0 6.765625 -1.953125q3.015625 -1.96875 3.015625 -6.0625q0 -3.234375 -2.203125 -5.359375q-2.1875 -2.125 -5.65625 -2.125q-3.421875 0 -5.71875 2.15625q-2.28125 2.15625 -2.9375 6.484375l-5.890625 -1.046875q1.078125 -5.921875 4.90625 -9.171875q3.828125 -3.265625 9.515625 -3.265625q3.921875 0 7.21875 1.6875q3.3125 1.6875 5.0625 4.59375q1.75 2.90625 1.75 6.1875q0 3.109375 -1.671875 5.65625q-1.65625 2.546875 -4.9375 4.0625q4.265625 0.96875 6.609375 4.0625q2.359375 3.09375 2.359375 7.734371q0 6.28125 -4.578125 10.65625q-4.578125 4.359375 -11.578125 4.359375q-6.3125 0 -10.484375 -3.75q-4.171875 -3.765625 -4.765625 -9.75z" fill-rule="nonzero"></path><path fill="#000000" fill-opacity="0.0" d="m435.6063 425.89502l770.2047 0l0 89.85828l-770.2047 0z" fill-rule="evenodd"></path><path fill="#000000" fill-opacity="0.0" d="m0.8215223 0l0 242.77165" fill-rule="evenodd"></path><path stroke="#000000" stroke-width="1.0" stroke-linejoin="round" stroke-linecap="butt" d="m0.8215223 0l0 242.77165" fill-rule="evenodd"></path><path fill="#000000" fill-opacity="0.0" d="m1.0682415 240.97375l236.18898 0" fill-rule="evenodd"></path><path stroke="#000000" stroke-width="1.0" stroke-linejoin="round" stroke-linecap="butt" d="m1.0682415 240.97375l236.18898 0" fill-rule="evenodd"></path><path fill="#000000" fill-opacity="0.0" d="m0 0.14173229l233.70079 0" fill-rule="evenodd"></path><path stroke="#000000" stroke-width="1.0" stroke-linejoin="round" stroke-linecap="butt" d="m0 0.14173229l233.70079 0" fill-rule="evenodd"></path><path fill="#000000" fill-opacity="0.0" d="m236.19948 239.90552l0 -239.74803" fill-rule="evenodd"></path><path stroke="#000000" stroke-width="1.0" stroke-linejoin="round" stroke-linecap="butt" d="m236.19948 239.90552l0 -239.74803" fill-rule="evenodd"></path></g></svg>

